<mxfile host="app.diagrams.net" modified="2024-01-14T18:17:20.547Z" agent="Mozilla/5.0 (Windows NT 10.0; Win64; x64) AppleWebKit/537.36 (KHTML, like Gecko) Chrome/120.0.0.0 Safari/537.36" etag="nHRZWA0NW6ML8GNaCtWJ" version="22.1.17" type="github">
  <diagram name="第 1 页" id="NifZxuRxoJgHwt1wx93L">
    <mxGraphModel dx="1481" dy="807" grid="1" gridSize="10" guides="1" tooltips="1" connect="1" arrows="1" fold="1" page="1" pageScale="1" pageWidth="827" pageHeight="1169" math="0" shadow="0">
      <root>
        <mxCell id="0" />
        <mxCell id="1" parent="0" />
        <mxCell id="kWHdFcT8Xwx73oENcEn5-5" value="" style="rounded=0;whiteSpace=wrap;html=1;" vertex="1" parent="1">
          <mxGeometry x="200" y="90" width="500" height="110" as="geometry" />
        </mxCell>
        <mxCell id="kWHdFcT8Xwx73oENcEn5-6" value="" style="rounded=0;whiteSpace=wrap;html=1;" vertex="1" parent="1">
          <mxGeometry x="70" y="240" width="220" height="300" as="geometry" />
        </mxCell>
        <mxCell id="kWHdFcT8Xwx73oENcEn5-8" value="" style="rounded=0;whiteSpace=wrap;html=1;" vertex="1" parent="1">
          <mxGeometry x="325" y="240" width="220" height="300" as="geometry" />
        </mxCell>
        <mxCell id="kWHdFcT8Xwx73oENcEn5-9" value="" style="rounded=0;whiteSpace=wrap;html=1;" vertex="1" parent="1">
          <mxGeometry x="580" y="240" width="220" height="300" as="geometry" />
        </mxCell>
        <mxCell id="kWHdFcT8Xwx73oENcEn5-10" value="&lt;b&gt;&lt;font style=&quot;font-size: 17px;&quot;&gt;总结与展望（第六章）&lt;/font&gt;&lt;/b&gt;" style="rounded=0;whiteSpace=wrap;html=1;fontFamily=仿宋;" vertex="1" parent="1">
          <mxGeometry x="310" y="584" width="250" height="70" as="geometry" />
        </mxCell>
      </root>
    </mxGraphModel>
  </diagram>
</mxfile>
